<svg xmlns="http://www.w3.org/2000/svg" viewBox="0 0 193 193" width="193" height="193">
	<style>
		tspan { white-space:pre }
		.shp0 { fill: #ffffff }
		.shp1 { fill: #000000 }
	</style>
	<g id="Layer">
		<path id="Layer" fill-rule="evenodd" class="shp0" d="M112.87 45.18C138.9 63.4 159.73 88.78 172.1 118.51C172.1 118.51 175.35 125.89 175.35 129.57C175.35 130.22 175.35 130.44 175.14 130.88C174.92 131.31 174.7 131.74 174.48 131.96C171.88 134.78 164.5 138.04 164.5 138.04C143.68 147.15 120.46 152.35 96.38 152.35C72.3 152.35 49.08 147.15 28.25 138.04C28.25 138.04 20.87 134.78 18.27 131.96C18.06 131.74 17.84 131.31 17.62 130.88C17.4 130.44 17.4 130.22 17.4 129.57C17.4 125.89 20.66 118.51 20.66 118.51C33.02 88.78 53.85 63.4 79.89 45.17C79.89 45.17 91.61 37.15 96.38 37.15C101.15 37.15 112.87 45.18 112.87 45.18ZM146.93 143.24L146.06 77.72L122.85 91.6L122.85 54.5L96.38 70.34L69.91 54.5L69.91 91.61L46.69 77.72L45.83 143.24C47.99 143.89 50.38 144.55 52.77 145.2L53.64 90.09L69.91 99.85L69.91 148.88C72.3 149.32 74.68 149.75 77.07 149.97L77.07 104.19L96.38 115.9L115.69 104.19L115.69 149.97C118.08 149.75 120.46 149.32 122.85 148.88L122.85 99.85L139.12 90.09L139.99 145.19C142.37 144.54 144.76 143.89 146.93 143.24ZM70.99 53.64L96.38 68.82L121.76 53.64C118.51 51.03 115.47 48.65 112 46.26C112 46.26 100.93 38.67 96.38 38.67C91.82 38.67 80.76 46.26 80.76 46.26C77.28 48.65 74.25 51.03 70.99 53.64ZM68.61 55.59C66.7 57.18 64.82 58.81 62.99 60.48C61.15 62.15 59.35 63.87 57.6 65.62C55.84 67.38 54.12 69.18 52.45 71.01C50.78 72.85 49.15 74.72 47.56 76.64L68.61 89.44L68.61 55.59ZM44.31 142.81L45.39 79.46C35.85 91.39 27.82 104.63 21.74 118.94C21.74 118.94 18.92 125.89 18.92 129.14C18.92 129.57 18.92 130.01 19.14 130.44C19.36 130.66 19.57 131.09 19.79 131.31C22.18 133.91 28.9 136.73 28.9 136.73C33.89 139.12 39.1 141.07 44.31 142.81ZM68.61 148.67L68.61 100.72L54.94 92.47L54.07 145.63C58.84 146.93 63.62 147.8 68.61 148.67ZM114.38 106.58L96.38 117.43L78.37 106.58L78.37 150.19C84.23 150.62 90.3 151.05 96.38 151.05C102.45 151.05 108.53 150.62 114.38 150.19L114.38 106.58ZM124.15 148.67C129.14 147.8 133.91 146.93 138.68 145.63L137.82 92.47L124.15 100.72L124.15 148.67ZM124.15 55.59L124.15 89.44L145.19 76.63C143.61 74.72 141.98 72.85 140.3 71.01C138.63 69.18 136.92 67.38 135.16 65.62C133.4 63.87 131.61 62.15 129.77 60.48C127.93 58.81 126.06 57.18 124.15 55.59ZM173.83 129.14C173.83 125.88 171.01 118.94 171.01 118.94C164.94 104.62 156.91 91.39 147.36 79.45L148.23 142.81C153.66 141.07 158.86 139.12 163.85 136.73C163.85 136.73 170.58 133.91 172.96 131.31C173.18 131.09 173.4 130.66 173.61 130.44C173.83 130.01 173.83 129.57 173.83 129.14Z" />
		<path id="Layer" fill-rule="evenodd" class="shp1" d="M176.65 116.56C176.65 116.56 180.78 126.54 180.78 131.53C180.78 131.96 180.78 132.61 180.56 133.04C180.34 133.7 180.12 134.13 179.69 134.57C176.22 138.04 166.45 142.38 166.45 142.38C144.98 151.92 121.33 157.35 96.38 157.35C71.43 157.35 47.78 151.92 26.3 142.38C26.3 142.38 16.53 138.04 13.06 134.57C12.63 134.13 12.41 133.7 12.2 133.04C11.98 132.61 11.98 131.96 11.98 131.53C11.98 126.54 16.1 116.56 16.1 116.56C28.9 85.96 50.38 59.93 77.28 41.27C77.28 41.27 90.74 31.72 96.38 31.72C102.02 31.72 115.47 41.27 115.47 41.27C142.37 59.93 163.85 85.96 176.65 116.56ZM175.35 129.57C175.35 125.89 172.1 118.51 172.1 118.51C159.73 88.78 138.9 63.4 112.87 45.17C112.87 45.17 101.15 37.15 96.38 37.15C91.61 37.15 79.89 45.17 79.89 45.17C53.85 63.4 33.02 88.78 20.66 118.51C20.66 118.51 17.4 125.89 17.4 129.57C17.4 130.22 17.4 130.44 17.62 130.88C17.84 131.31 18.06 131.74 18.27 131.96C20.88 134.78 28.25 138.04 28.25 138.04C49.08 147.15 72.3 152.35 96.38 152.35C120.46 152.35 143.68 147.15 164.51 138.04C164.51 138.04 171.88 134.78 174.49 131.96C174.7 131.74 174.92 131.31 175.14 130.88C175.35 130.44 175.35 130.22 175.35 129.57Z" />
		<path id="Layer" fill-rule="evenodd" class="shp1" d="M122.85 91.6L146.06 77.72L146.93 143.24C144.76 143.89 142.37 144.55 139.99 145.2L139.12 90.09L122.85 99.85L122.85 148.88C120.46 149.32 118.08 149.75 115.69 149.97L115.69 104.19L96.38 115.9L77.07 104.19L77.07 149.97C74.68 149.75 72.3 149.32 69.91 148.88L69.91 99.85L53.64 90.09L52.77 145.19C50.38 144.54 47.99 143.89 45.83 143.24L46.69 77.72L69.91 91.6L69.91 54.5L96.38 70.34L122.85 54.5L122.85 91.6ZM115.69 67.09L96.38 78.59L77.07 67.09L77.07 95.94L96.38 107.66L115.69 95.94L115.69 67.09Z" />
	</g>
</svg>
